<?xml version="1.0" standalone="no"?>
<!DOCTYPE svg PUBLIC "-//W3C//DTD SVG 20010904//EN"
 "http://www.w3.org/TR/2001/REC-SVG-20010904/DTD/svg10.dtd">
<svg version="1.0" xmlns="http://www.w3.org/2000/svg"
 width="200.000000pt" height="200.000000pt" viewBox="0 0 200.000000 200.000000"
 preserveAspectRatio="xMidYMid meet">

<g transform="translate(0.000000,200.000000) scale(0.100000,-0.100000)"
fill="#000000" stroke="none">
<path d="M233 1893 c-27 -10 -5 -191 32 -262 18 -36 44 -46 63 -27 13 13 12
21 -7 66 -12 28 -25 73 -28 101 l-6 49 44 -17 c36 -14 80 -17 244 -18 216 -1
218 -1 317 -61 l59 -36 82 40 c121 60 149 65 316 57 119 -6 159 -4 219 10 40
9 75 15 76 13 2 -1 -1 -34 -7 -71 -11 -74 -4 -94 31 -83 26 9 44 89 40 173 -4
71 -14 74 -115 43 -60 -18 -88 -20 -248 -18 -196 3 -208 1 -326 -57 l-66 -33
-44 27 c-100 62 -118 65 -320 63 -164 -2 -193 0 -253 19 -38 11 -73 22 -80 24
-6 2 -17 1 -23 -2z"/>
<path d="M537 1660 c-95 -24 -184 -97 -226 -185 -35 -73 -40 -191 -11 -267 26
-71 96 -146 170 -184 48 -25 66 -29 145 -29 78 0 97 4 146 28 259 127 255 494
-6 613 -60 28 -160 38 -218 24z m170 -73 c225 -83 244 -395 31 -501 -61 -31
-165 -36 -224 -11 -178 74 -227 309 -93 444 71 72 196 101 286 68z"/>
<path d="M1364 1659 c-100 -24 -205 -120 -239 -218 -22 -64 -19 -169 6 -235
27 -72 93 -145 166 -181 51 -27 68 -30 148 -30 79 0 97 3 144 28 30 15 55 26
57 24 9 -9 24 -116 24 -174 0 -93 -26 -196 -73 -293 -79 -162 -246 -297 -427
-346 -88 -23 -244 -23 -330 0 -127 35 -234 100 -324 197 -55 59 -58 65 -53
102 9 65 63 162 127 225 68 68 166 123 264 148 77 19 67 24 119 -51 10 -14 24
-25 32 -25 8 0 31 25 51 55 20 30 40 52 45 50 4 -3 42 -14 83 -25 41 -10 101
-32 133 -47 70 -34 165 -120 210 -191 35 -55 56 -63 77 -30 8 14 1 31 -38 88
-82 120 -212 207 -366 246 -36 9 -67 18 -69 19 -1 2 4 14 13 27 9 12 16 26 16
31 0 20 -134 147 -154 147 -13 0 -49 -27 -91 -70 l-70 -71 22 -38 23 -39 -53
-12 c-28 -7 -90 -30 -136 -52 -110 -52 -210 -150 -262 -256 l-36 -73 -22 58
c-32 89 -43 158 -39 272 3 91 1 105 -15 115 -63 38 -73 -210 -16 -386 40 -122
132 -256 229 -333 28 -22 48 -45 46 -52 -3 -6 5 -44 18 -85 18 -59 26 -74 44
-76 30 -5 38 21 23 76 -6 25 -10 46 -8 48 2 3 28 -6 58 -20 163 -72 396 -74
556 -5 l43 18 -7 -27 c-15 -55 -10 -87 14 -90 26 -4 34 10 58 99 13 52 23 69
45 83 16 9 56 43 88 76 183 182 258 445 197 689 -13 51 -13 55 10 90 58 88 72
214 35 315 -27 72 -99 147 -172 181 -64 29 -160 40 -224 24z m173 -72 c60 -22
117 -72 148 -128 39 -71 42 -180 8 -245 -56 -105 -134 -154 -245 -154 -110 0
-186 43 -238 133 -104 182 26 409 234 406 34 0 75 -6 93 -12z m-480 -577 c-12
-20 -29 -47 -38 -60 l-15 -23 -38 62 -38 62 38 34 39 33 37 -35 37 -36 -22
-37z"/>
<path d="M490 286 c-9 -12 -7 -30 12 -88 19 -60 27 -74 46 -76 32 -5 37 20 18
91 -24 86 -47 107 -76 73z"/>
<path d="M409 274 c-11 -13 -10 -27 5 -82 24 -91 46 -113 75 -78 10 11 8 30
-9 88 -26 87 -44 105 -71 72z"/>
<path d="M1464 282 c-7 -4 -22 -40 -34 -81 -20 -68 -20 -75 -6 -90 26 -25 49
-2 70 74 14 47 17 72 10 83 -13 19 -25 24 -40 14z"/>
<path d="M1564 282 c-7 -4 -22 -40 -34 -81 -20 -68 -20 -75 -6 -90 26 -25 49
-2 70 74 14 47 17 72 10 83 -13 19 -25 24 -40 14z"/>
</g>
</svg>
