<?xml version="1.0" standalone="no"?>
<!DOCTYPE svg PUBLIC "-//W3C//DTD SVG 20010904//EN"
 "http://www.w3.org/TR/2001/REC-SVG-20010904/DTD/svg10.dtd">
<svg version="1.0" xmlns="http://www.w3.org/2000/svg"
 width="200.000000pt" height="200.000000pt" viewBox="0 0 200.000000 200.000000"
 preserveAspectRatio="xMidYMid meet">

<g transform="translate(0.000000,200.000000) scale(0.100000,-0.100000)"
fill="#000000" stroke="none">
<path d="M810 1730 c-102 -32 -193 -61 -202 -65 -13 -5 -18 -19 -18 -49 0 -22
-7 -50 -15 -60 -8 -11 -15 -28 -15 -38 0 -20 -8 -22 -43 -9 -40 16 -50 0 -42
-65 8 -71 38 -144 59 -144 24 0 29 19 13 53 -9 18 -19 50 -23 71 -6 36 -5 39
12 32 47 -18 120 -25 213 -19 l101 6 75 -37 74 -37 63 33 c63 33 64 33 213 34
84 1 162 6 178 13 16 6 31 11 33 11 3 0 2 -24 -1 -54 -5 -37 -3 -56 5 -61 19
-12 30 8 42 79 15 89 8 96 -76 73 -35 -9 -91 -17 -125 -17 l-60 0 -6 44 c-4
25 -4 49 -1 54 3 5 38 18 77 28 68 18 92 35 73 54 -11 10 -387 130 -406 129
-7 0 -96 -26 -198 -59z m345 -31 c71 -22 137 -42 145 -46 9 -3 -2 -10 -29 -19
-38 -11 -55 -11 -115 2 -87 19 -219 19 -305 1 -51 -12 -71 -12 -105 -2 l-41
13 140 45 c77 25 149 46 160 46 10 1 78 -17 150 -40z m-409 -142 c-3 -16 -6
-40 -6 -53 0 -17 -6 -24 -20 -24 -15 0 -20 7 -20 26 0 16 -12 37 -30 54 -16
15 -30 35 -30 43 0 12 7 12 56 -1 54 -15 56 -17 50 -45z m375 37 c46 -9 87
-21 91 -27 4 -7 8 -26 8 -43 0 -29 -2 -31 -60 -42 -34 -6 -84 -22 -113 -35
l-52 -23 -52 27 c-28 15 -74 30 -102 34 l-51 7 0 38 c0 22 5 42 10 45 16 10
149 33 196 34 23 1 79 -6 125 -15z m-471 -89 c0 -20 -5 -25 -25 -25 -18 0 -25
5 -25 18 0 24 8 32 32 32 13 0 18 -7 18 -25z"/>
<path d="M664 1336 c-168 -73 -199 -304 -56 -413 138 -105 329 -42 378 125 33
114 -28 240 -138 286 -45 19 -142 20 -184 2z m186 -55 c19 -10 49 -37 65 -60
26 -37 30 -51 30 -110 0 -55 -4 -74 -24 -103 -68 -99 -206 -119 -291 -42 -173
156 13 422 220 315z"/>
<path d="M686 1250 c-50 -15 -83 -58 -57 -75 6 -3 25 4 43 15 44 27 80 25 116
-5 56 -47 51 -117 -10 -155 -22 -14 -43 -19 -63 -15 -38 6 -85 57 -85 91 0 21
-4 25 -22 22 -19 -2 -22 -8 -19 -33 15 -134 187 -173 262 -59 25 38 25 109 -1
151 -31 51 -106 80 -164 63z"/>
<path d="M725 1169 c-9 -14 60 -83 74 -74 17 10 13 43 -9 65 -22 22 -55 26
-65 9z"/>
<path d="M1254 1336 c-167 -73 -198 -304 -56 -413 74 -56 176 -67 252 -28 17
9 35 13 40 10 18 -11 22 -129 7 -201 -38 -181 -158 -313 -329 -365 -58 -18
-87 -21 -165 -17 -85 5 -102 9 -177 46 -81 41 -186 133 -186 164 0 30 60 136
100 175 45 46 143 98 201 108 33 6 39 3 58 -24 29 -40 44 -39 71 4 19 30 25
34 53 28 114 -21 223 -88 273 -167 30 -47 50 -58 60 -31 15 37 -102 161 -189
200 -29 13 -73 29 -99 35 -45 12 -46 13 -36 36 10 22 7 29 -37 74 -27 28 -53
50 -58 50 -4 0 -30 -19 -58 -42 -47 -42 -63 -78 -39 -93 20 -12 10 -23 -27
-30 -106 -19 -242 -127 -286 -224 -17 -38 -21 -42 -29 -26 -24 42 -38 124 -36
205 2 80 1 85 -19 88 -19 3 -22 -3 -28 -53 -20 -154 54 -345 171 -443 24 -20
44 -40 44 -45 0 -5 7 -33 16 -63 12 -43 20 -54 36 -54 18 0 20 4 14 45 l-7 44
43 -18 c106 -47 257 -52 370 -13 l56 20 -9 -31 c-5 -19 -5 -35 0 -40 18 -18
38 1 50 47 9 36 27 61 89 123 84 85 123 147 147 238 17 67 20 202 5 256 -9 32
-7 42 17 85 35 63 38 159 6 219 -27 51 -78 100 -125 119 -45 19 -142 20 -184
2z m141 -37 c120 -33 179 -163 124 -277 -53 -108 -209 -137 -299 -56 -116 105
-80 277 69 330 45 16 56 17 106 3z m-335 -364 l23 -25 -19 -36 c-10 -19 -22
-38 -26 -40 -4 -3 -19 14 -34 36 l-27 41 23 24 c29 31 31 31 60 0z"/>
<path d="M1283 1250 c-41 -9 -63 -27 -63 -51 0 -22 16 -24 50 -4 43 25 79 18
117 -20 31 -31 35 -40 30 -72 -19 -115 -167 -118 -194 -5 -5 22 -16 38 -26 40
-14 3 -17 -4 -17 -35 0 -77 60 -133 141 -133 81 0 139 59 139 142 0 94 -85
159 -177 138z"/>
<path d="M1295 1179 c-9 -14 60 -83 74 -74 17 10 13 43 -9 65 -22 22 -55 26
-65 9z"/>
<path d="M665 370 c-3 -5 1 -35 10 -65 12 -43 20 -55 35 -55 24 0 25 17 6 80
-13 43 -37 63 -51 40z"/>
<path d="M605 360 c-10 -17 24 -120 40 -120 24 0 27 19 10 75 -15 52 -35 70
-50 45z"/>
<path d="M1355 360 c-3 -5 -12 -31 -20 -57 -15 -49 -8 -70 18 -60 17 6 42 90
34 112 -7 17 -23 20 -32 5z"/>
<path d="M1421 351 c-6 -11 -14 -41 -17 -66 -6 -37 -4 -45 9 -45 22 0 38 33
40 82 2 45 -15 61 -32 29z"/>
</g>
</svg>
