<?xml version="1.0" standalone="no"?>
<!DOCTYPE svg PUBLIC "-//W3C//DTD SVG 20010904//EN"
 "http://www.w3.org/TR/2001/REC-SVG-20010904/DTD/svg10.dtd">
<svg version="1.0" xmlns="http://www.w3.org/2000/svg"
 width="200.000000pt" height="200.000000pt" viewBox="0 0 200.000000 200.000000"
 preserveAspectRatio="xMidYMid meet">

<g transform="translate(0.000000,200.000000) scale(0.100000,-0.100000)"
fill="#000000" stroke="none">
<path d="M362 1568 c-13 -18 4 -141 28 -195 13 -30 25 -43 38 -43 29 0 33 23
12 66 -10 22 -20 56 -24 77 -5 38 -5 39 22 32 74 -20 117 -24 233 -18 121 6
128 5 180 -20 30 -14 66 -34 80 -43 26 -17 29 -17 105 22 l79 39 170 1 c100 1
182 6 198 13 47 18 49 16 42 -54 -7 -62 -6 -65 14 -65 27 0 38 28 47 113 9 87
0 93 -97 65 -64 -18 -89 -20 -184 -14 -128 8 -195 -3 -281 -43 l-61 -29 -74
37 -73 36 -150 -2 c-125 -2 -160 0 -216 17 -79 24 -75 23 -88 8z"/>
<path d="M594 1378 c-59 -20 -127 -81 -158 -141 -71 -138 -12 -309 129 -377
183 -88 396 47 394 250 -1 76 -12 112 -55 172 -45 63 -119 100 -208 104 -39 2
-85 -2 -102 -8z m206 -76 c26 -17 57 -47 75 -76 26 -42 30 -59 30 -115 -1 -42
-7 -77 -17 -97 -85 -157 -307 -167 -394 -18 -119 203 106 427 306 306z"/>
<path d="M1290 1381 c-121 -37 -200 -144 -200 -271 0 -205 206 -335 397 -250
25 11 48 18 51 15 3 -2 7 -46 9 -97 13 -257 -130 -471 -371 -556 -58 -21 -90
-25 -171 -25 -162 0 -284 53 -399 173 -49 51 -56 63 -50 87 22 91 96 193 180
246 49 30 147 67 179 67 29 0 30 3 10 34 -15 23 -17 24 -67 11 -131 -35 -263
-137 -317 -246 -34 -67 -36 -66 -65 31 -11 36 -16 88 -16 150 1 52 1 101 1
108 -1 8 -10 12 -23 10 -27 -4 -35 -32 -37 -123 -2 -151 61 -305 174 -422 48
-50 78 -73 94 -73 12 0 35 -13 49 -28 71 -75 314 -103 470 -54 64 20 75 27 84
53 10 28 13 30 44 24 32 -6 39 -1 107 67 78 79 133 170 163 273 21 72 23 218
5 292 -12 49 -11 53 13 90 96 145 15 361 -155 412 -41 12 -121 13 -159 2z
m179 -70 c111 -57 152 -187 94 -302 -38 -74 -93 -111 -172 -117 -76 -5 -124
11 -177 60 -188 173 27 475 255 359z"/>
<path d="M1090 815 c-18 -21 -5 -32 52 -44 115 -25 213 -89 279 -183 40 -58
64 -72 75 -43 16 40 -110 181 -202 228 -52 26 -146 57 -175 57 -9 0 -22 -7
-29 -15z"/>
</g>
</svg>
