<?xml version="1.0" standalone="no"?>
<!DOCTYPE svg PUBLIC "-//W3C//DTD SVG 20010904//EN"
 "http://www.w3.org/TR/2001/REC-SVG-20010904/DTD/svg10.dtd">
<svg version="1.0" xmlns="http://www.w3.org/2000/svg"
 width="180.000000pt" height="225.000000pt" viewBox="0 0 180.000000 225.000000"
 preserveAspectRatio="xMidYMid meet">

<g transform="translate(0.000000,225.000000) scale(0.100000,-0.100000)"
fill="#000000" stroke="none">
<path d="M220 1733 c0 -103 41 -213 79 -213 26 0 34 26 16 53 -15 23 -40 125
-32 133 2 2 33 -3 68 -12 51 -13 88 -15 185 -10 141 8 182 1 265 -50 l57 -34
88 42 89 43 175 0 c120 0 187 5 213 14 21 7 40 11 43 9 2 -3 -1 -30 -7 -61
-11 -63 -7 -77 21 -77 21 0 35 36 45 117 8 61 0 93 -23 93 -9 0 -46 -10 -82
-21 -58 -18 -80 -20 -200 -15 -149 7 -208 -2 -302 -50 l-52 -26 -75 38 -75 39
-160 -2 c-135 -2 -172 1 -227 17 -102 31 -109 29 -109 -27z"/>
<path d="M480 1571 c-51 -16 -89 -41 -134 -92 -131 -145 -86 -367 94 -460 64
-33 185 -34 251 -1 105 52 169 150 169 261 0 83 -14 128 -59 187 -54 72 -141
114 -229 113 -37 0 -78 -4 -92 -8z m203 -79 c83 -44 136 -148 121 -236 -27
-162 -192 -251 -339 -182 -60 28 -87 56 -114 116 -38 83 -23 180 37 250 76 90
188 109 295 52z"/>
<path d="M1164 1552 c-108 -52 -164 -145 -164 -272 0 -171 146 -303 320 -287
31 2 76 15 99 27 24 12 45 19 48 16 10 -10 23 -83 23 -136 0 -254 -180 -496
-420 -564 -209 -59 -424 -3 -577 151 -60 60 -65 67 -60 99 24 149 177 293 354
334 48 11 52 14 42 32 -16 30 -34 32 -107 9 -131 -39 -256 -145 -313 -264
l-27 -58 -23 58 c-19 48 -24 82 -27 196 -4 136 -4 137 -27 137 -21 0 -25 -6
-31 -46 -21 -143 17 -318 96 -440 57 -87 152 -174 190 -174 20 0 31 -6 35 -20
8 -25 39 -41 130 -70 167 -52 450 -12 469 66 6 23 10 25 40 20 27 -5 39 -1 77
31 108 91 179 202 215 334 21 76 23 242 5 308 -12 41 -11 47 20 105 30 54 33
70 34 141 0 93 -22 148 -83 209 -58 59 -105 79 -197 83 -72 4 -86 1 -141 -25z
m229 -49 c47 -19 110 -90 125 -141 48 -158 -63 -312 -226 -312 -151 0 -264
140 -232 287 15 66 51 117 106 149 78 46 141 51 227 17z"/>
<path d="M1000 976 c-21 -26 -7 -38 67 -57 126 -32 223 -97 287 -193 37 -56
52 -66 73 -45 29 29 -91 175 -189 233 -51 30 -133 60 -189 70 -26 5 -40 2 -49
-8z"/>
</g>
</svg>
